<?xml version="1.0" encoding="UTF-8" standalone="no"?>
<svg
   xmlns:dc="http://purl.org/dc/elements/1.1/"
   xmlns:cc="http://creativecommons.org/ns#"
   xmlns:rdf="http://www.w3.org/1999/02/22-rdf-syntax-ns#"
   xmlns:svg="http://www.w3.org/2000/svg"
   xmlns="http://www.w3.org/2000/svg"
   xmlns:sodipodi="http://sodipodi.sourceforge.net/DTD/sodipodi-0.dtd"
   xmlns:inkscape="http://www.inkscape.org/namespaces/inkscape"
   viewBox="0 0 256 256"
   version="1.1"
   id="svg16"
   sodipodi:docname="handnog1.svg"
   inkscape:version="0.92.3 (2405546, 2018-03-11)">
  <defs
     id="defs20" />
  <sodipodi:namedview
     pagecolor="#ffffff"
     bordercolor="#666666"
     borderopacity="1"
     objecttolerance="10"
     gridtolerance="10"
     guidetolerance="10"
     inkscape:pageopacity="0"
     inkscape:pageshadow="2"
     inkscape:window-width="1920"
     inkscape:window-height="1017"
     id="namedview18"
     showgrid="false"
     inkscape:zoom="3.6875"
     inkscape:cx="111.62719"
     inkscape:cy="117.82765"
     inkscape:window-x="-8"
     inkscape:window-y="-8"
     inkscape:window-maximized="1"
     inkscape:current-layer="svg16" />
  <g
     id="imagebot_1"
     label="Layer 1"
     transform="translate(0,-5.6949153)">
    <g
       id="imagebot_2"
       label="Layer 1"
       transform="matrix(1.2311,0,0,1.2311,66.255,-1090.7)">
      <path
         id="imagebot_10"
         d="m 89.471,1065.9 c 3.727,6.1 -0.484,10 -6.16,12.9 -8.03,4.1 -27.898,2.1 -34.7,-2 -6.243,-3.8 -9.013,-9.3 -6.041,-14.2"
         inkscape:connector-curvature="0"
         style="fill:#ffffff;stroke:#000000;stroke-width:4.06139994;stroke-linecap:round;stroke-linejoin:round" />
      <path
         id="imagebot_9"
         d="m 21.354,1021 c -0.857,15.7 13.893,40.3 31.364,46.1 9.022,2.9 29.326,3.8 36.494,-1.5 12.278,-9 18.478,-20.7 21.288,-35.1 0.99,-5.1 1.24,-10.9 0.95,-15.7 5.96674,-41.7929 -14.718827,-41.46698 -20.606,-31.93 -3.442563,-13.4324 -27.762831,-8.41623 -29.025,0.06 -3.145,-10.28 -13.497435,-14.02601 -15.271435,-24.22601 -2.925,-16.83 -23.752803,-7.40084 -19.743803,13.09916 2.731,13.96 8.832238,13.88685 11.501238,27.18685 -2.806,2.21 -16.056,5.71 -16.951,22.01 z"
         inkscape:connector-curvature="0"
         style="fill:#ffffff;stroke:#000000;stroke-width:4.06139994;stroke-linecap:round;stroke-linejoin:round"
         sodipodi:nodetypes="ccccccccccc" />
      <path
         id="imagebot_8"
         d="m 59.576,982.54 c 3.037,12.66 7.491,18.46 9.149,21.46 -2.12,-7.92 -2.868,-9.87 -4.494,-18.45 -0.275,-1.46 -0.356,-3.2 -0.116,-5.33 z"
         inkscape:connector-curvature="0"
         style="fill:#000000;stroke-width:5.78100014" />
      <path
         id="imagebot_7"
         d="m 88.815,982.97 c 0.126,7.64 2.111,16.81 4.971,22.53 -0.131,-4.2 -0.418,-11.32 -0.742,-17.64 -0.087,-1.72 0.914839,-6.35392 2.321839,-8.36392 -1.926,0.55 -4.571839,3.47392 -6.550839,3.47392 z"
         inkscape:connector-curvature="0"
         style="fill:#000000;stroke-width:5.78100014"
         sodipodi:nodetypes="ccccc" />
      <path
         id="imagebot_6"
         d="m 79.642,1058.3 c 4.036,-9.7 3.976,-12.5 5.195,-17.4"
         inkscape:connector-curvature="0"
         style="fill:none;stroke:#000000;stroke-width:4.06139994;stroke-linecap:round;stroke-linejoin:round" />
      <path
         id="imagebot_5"
         d="m 70.26,1059 c 1.693,-11.5 1.425,-17.2 1.856,-24.9"
         inkscape:connector-curvature="0"
         style="fill:none;stroke:#000000;stroke-width:4.06139994;stroke-linecap:round;stroke-linejoin:round" />
      <path
         id="imagebot_4"
         d="m 59.041,1059.5 c 0.098,-8 -0.598,-11.8 -1.048,-16.8"
         inkscape:connector-curvature="0"
         style="fill:none;stroke:#000000;stroke-width:4.06139994;stroke-linecap:round;stroke-linejoin:round" />
      <path
         id="imagebot_3"
         d="m 36.025,998.02 c 3.892,16.78 8.71159,24.4814 11.052865,32.1003 C 45.614471,1020.4392 43.578,1018.1 40.279,998.49 Z"
         inkscape:connector-curvature="0"
         style="fill:#000000;stroke-width:5.78100014"
         sodipodi:nodetypes="cccc" />
    </g>
    <title
       label="Layer 1"
       id="title11">Layer 1</title>
  </g>
  <metadata
     id="metadata14">
    <rdf:RDF>
      <cc:Work>
        <dc:format>image/svg+xml</dc:format>
        <dc:type
           rdf:resource="http://purl.org/dc/dcmitype/StillImage" />
        <cc:license
           rdf:resource="http://creativecommons.org/licenses/publicdomain/" />
        <dc:publisher>
          <cc:Agent
             rdf:about="http://openclipart.org/">
            <dc:title>Openclipart</dc:title>
          </cc:Agent>
        </dc:publisher>
        <dc:title />
        <dc:date>2012-02-07T01:52:46</dc:date>
        <dc:description />
        <dc:source>https://openclipart.org/detail/167879/hand-nog-by-rduris</dc:source>
        <dc:creator>
          <cc:Agent>
            <dc:title>rduris</dc:title>
          </cc:Agent>
        </dc:creator>
        <dc:subject>
          <rdf:Bag>
            <rdf:li>three</rdf:li>
            <rdf:li>count</rdf:li>
            <rdf:li>fingers</rdf:li>
            <rdf:li>hand</rdf:li>
            <rdf:li>glove</rdf:li>
          </rdf:Bag>
        </dc:subject>
      </cc:Work>
      <cc:License
         rdf:about="http://creativecommons.org/licenses/publicdomain/">
        <cc:permits
           rdf:resource="http://creativecommons.org/ns#Reproduction" />
        <cc:permits
           rdf:resource="http://creativecommons.org/ns#Distribution" />
        <cc:permits
           rdf:resource="http://creativecommons.org/ns#DerivativeWorks" />
      </cc:License>
    </rdf:RDF>
  </metadata>
</svg>
